<?xml version="1.0" encoding="UTF-8" standalone="no"?>
<!-- Created with Inkscape (http://www.inkscape.org/) -->

<svg
   width="300"
   height="278"
   viewBox="0 0 79.374998 73.554169"
   version="1.1"
   id="svg5"
   inkscape:version="1.1.2 (0a00cf5339, 2022-02-04, custom)"
   sodipodi:docname="logo.svg"
   xmlns:inkscape="http://www.inkscape.org/namespaces/inkscape"
   xmlns:sodipodi="http://sodipodi.sourceforge.net/DTD/sodipodi-0.dtd"
   xmlns="http://www.w3.org/2000/svg"
   xmlns:svg="http://www.w3.org/2000/svg">
  <sodipodi:namedview
     id="namedview7"
     pagecolor="#ffffff"
     bordercolor="#666666"
     borderopacity="1.0"
     inkscape:pageshadow="2"
     inkscape:pageopacity="0.0"
     inkscape:pagecheckerboard="0"
     inkscape:document-units="mm"
     showgrid="false"
     units="px"
     height="278px"
     inkscape:zoom="2"
     inkscape:cx="151.75"
     inkscape:cy="156.5"
     inkscape:window-width="1600"
     inkscape:window-height="837"
     inkscape:window-x="-8"
     inkscape:window-y="-8"
     inkscape:window-maximized="1"
     inkscape:current-layer="layer1" />
  <defs
     id="defs2" />
  <g
     inkscape:label="Calque 1"
     inkscape:groupmode="layer"
     id="layer1">
    <path
       id="path27015"
       style="fill:#503530;fill-opacity:1;stroke:none;stroke-width:0.272855px;stroke-linecap:butt;stroke-linejoin:miter;stroke-opacity:1"
       d="M 54.905589,6.5263927e-4 C 53.766808,-0.0153355 53.086841,0.26584009 52.845125,0.46940791 51.573783,1.5401028 53.241881,3.9832061 53.241881,3.9832061 c 0,0 -0.734928,-0.8068563 -2.745864,-1.523588 -2.010937,-0.7167315 -3.817905,-0.7108655 -3.817905,-0.7108655 0,0 0.93684,0.2816891 3.455764,1.1124272 1.994715,0.6578543 4.97681,3.5378752 5.187109,3.3746114 0.22784,-0.1768819 -3.333685,-3.4596117 -2.052475,-5.35308937 0,0 2.175209,-1.93871093 10.573391,3.57832537 6.798598,4.466218 8.589084,12.7987788 8.589084,12.7987788 0,0 0.02106,-7.021482 -7.907411,-12.9694292 C 59.976734,0.87932905 56.803559,0.02729952 54.905589,6.5263927e-4 Z M 60.142226,5.5313252 c 1.784585,1.4968889 5.17844,2.5586754 7.996881,7.0627928 4.139368,6.615081 3.212233,13.529346 3.585174,13.656831 0.334532,0.114355 2.573605,-5.14445 4.912841,-4.370783 1.79622,0.594073 2.80769,6.641873 0.605517,13.425919 -1.335993,4.11568 -1.592779,3.639036 -4.19655,7.238245 1.842595,-1.650668 3.931341,-3.939321 4.829761,-7.208383 1.497577,-5.449186 1.703041,-13.39258 -1.055527,-14.05839 -2.823164,-0.681401 -4.801006,4.041214 -4.801006,4.041214 0,0 0.09913,-7.485284 -3.23262,-12.701189 C 65.454931,7.4016783 61.42517,5.9286553 60.142226,5.5313252 Z M 37.808904,6.360046 c -0.480386,3.004e-4 -0.91037,0.3482322 -1.079493,0.8735168 -0.168076,-0.1790183 -0.38713,-0.2786199 -0.614572,-0.2794401 -0.504798,-0.00183 -0.915792,0.4736413 -0.919193,1.0633654 0.0025,0.1368387 0.0271,0.2718864 0.07296,0.3978287 h -0.286517 c -1.589572,0.00471 -2.875342,1.1446074 -2.875276,2.5490902 v 1.461194 0.016 c 0.06707,1.084723 2.172302,1.411597 2.172302,1.411598 -0.0097,1.440075 1.147501,2.641088 2.647341,2.747472 v 1.038833 a 31.925213,25.640967 0 0 0 -21.621825,7.998171 30.27658,26.005199 0 0 1 20.097115,-6.550309 30.27658,26.005199 0 0 1 30.104398,24.334213 h 4.951716 l 0.0016,-0.218648 A 31.925213,25.640967 0 0 0 38.691352,17.564844 V 16.60067 c 1.499839,-0.106384 2.657029,-1.307398 2.647341,-2.747472 0,-1e-6 2.105233,-0.326875 2.172302,-1.411598 v -0.016 -1.461194 C 43.51106,9.5599222 42.225291,8.4200196 40.635718,8.4153138 h -0.286515 c 0.04585,-0.1259423 0.07049,-0.26099 0.07296,-0.3978287 C 40.418755,7.427764 40.007766,6.9522963 39.502968,6.9541227 39.275527,6.9549418 39.056469,7.0545445 38.888399,7.2335628 38.719276,6.7082782 38.28929,6.3603464 37.808904,6.360046 Z m -3.288542,3.1650318 h 2.651602 c 0.119141,0.1903078 0.351744,0.4180285 0.635874,0.4154269 0.284129,-0.0026 0.461858,-0.2593927 0.638005,-0.4154269 h 2.651603 v 0.01493 c 0.861152,0.069785 1.536295,0.7408372 1.580628,1.5710512 h 0.0037 c 0,0 -0.0037,0 -0.02609,0.912979 -0.21215,0.774582 -1.501402,1.047427 -2.099341,1.165755 l -0.06018,0.901248 h -0.0091 c -0.07918,0.985087 -0.819897,1.743409 -1.713238,1.753966 -0.0551,6.28e-4 -0.110194,-0.0017 -0.165093,-0.0069 -0.01734,-0.39581 -0.364979,-0.713567 -0.7999,-0.731131 -0.434922,0.01756 -0.782559,0.335321 -0.7999,0.731131 -0.0549,0.0052 -0.109995,0.0075 -0.165093,0.0069 -0.893341,-0.01055 -1.634056,-0.768879 -1.713239,-1.753966 h -0.0091 l -0.06018,-0.901248 c -0.597955,-0.118346 -1.887191,-0.391173 -2.099341,-1.165755 -0.02236,-0.912979 -0.02609,-0.912979 -0.02609,-0.912979 h 0.0037 c 0.04434,-0.830217 0.719473,-1.5012633 1.580629,-1.5710512 z M 36.59627,22.963796 c -5.509388,0.03435 -4.135306,16.442698 -4.135306,16.442698 0,0 -0.490164,0.745459 -1.020381,1.421199 -0.530216,0.67574 -1.494356,1.07723 -1.494356,1.07723 0.272517,-4.717539 1.504816,-13.695666 -0.481962,-15.684372 -2.338366,-2.340622 -4.579461,1.544387 -4.579461,1.544387 0,0 -0.09622,-2.268583 -1.735072,-2.268583 -1.735257,0 -3.807784,3.475401 -3.807784,3.475401 0,0 -0.795427,-1.882285 -4.049033,-1.254813 -2.023671,0.390273 -1.97632,2.485627 -1.97632,2.485627 0,0 0.506046,-1.544732 1.903892,-2.051536 1.119378,-0.405842 0.50593,5.985028 0.505929,5.985028 0,0 -6.5612951,9.330257 -1.3495,9.243386 5.924787,-0.09875 5.157817,-13.780019 5.157817,-13.780019 0,0 0.433651,-1.182571 1.542286,-2.268582 0.880486,-0.862524 1.253108,5.985029 1.253107,5.985029 0,0 -4.480569,10.030564 -0.795107,9.846527 4.746908,-0.237042 3.422213,-14.48022 3.422213,-14.48022 0,0 1.605191,-2.764507 2.337927,-2.317112 0.988135,0.603339 -1.325566,11.897902 0.192785,14.673268 2.351372,4.298032 5.398534,-1.109761 5.398534,-1.109761 0,0 0.459074,2.731559 2.337927,2.895724 1.97243,0.172341 4.844139,-8.060566 4.844139,-8.060566 0,0 -0.181088,5.425025 0.168821,6.15408 0.2811,0.585688 1.011988,1.717602 1.68661,1.761966 0.891107,0.0586 1.229487,-7.626467 1.735603,-10.184628 0.45313,-2.290345 1.983244,-6.865479 1.983244,-6.865479 0.711947,4.860394 -0.933127,16.885084 1.213165,17.046907 0.999129,0.07533 3.093625,-3.906826 3.093625,-3.906826 0,0 0.07113,2.531977 1.122099,3.440205 2.066559,1.785893 4.228505,-4.019352 4.228505,-4.019352 0,0 -0.458298,3.130862 0.614569,3.923359 1.91545,1.414891 3.391859,-1.924081 3.391859,-1.924081 0,0 -0.996083,1.354538 -1.324469,1.107094 -0.5007,-0.377282 0.519241,-7.406628 0.519241,-8.661574 0,-1.25495 -1.247446,-2.451218 -1.874067,-2.596019 -0.626619,-0.144801 -1.409681,7.089456 -1.409681,7.089456 0,0 -2.573862,6.458247 -2.747463,3.846034 -0.13408,-2.01754 2.085525,-11.120696 1.353228,-12.851041 -0.410771,-0.970611 -1.75848,-2.540156 -2.492367,-2.297914 -1.180227,0.389568 -1.429384,11.882068 -1.429384,11.882065 0,3e-6 -1.34504,4.766899 -1.891644,1.100163 -0.546603,-3.666736 2.258106,-11.884454 -2.100939,-14.035462 -1.211049,-0.152165 -2.790067,8.84769 -2.790067,8.84769 0,0 1.504353,-10.820047 -1.520982,-10.012378 -1.229406,0.32821 -1.29092,9.141528 -1.29092,9.141528 0,0 -2.472118,7.501035 -3.493044,7.633405 -1.624588,0.21064 -1.344707,-4.46304 -1.344707,-4.46304 1.702504,-2.74159 5.793258,-12.877342 1.191865,-12.955565 -0.02182,-3.71e-4 -0.04337,-6.68e-4 -0.06497,-5.33e-4 z m 1.100796,1.444128 c 0.04927,-0.0107 0.09945,-0.01097 0.150183,0 0.05236,0.01134 0.105319,0.03446 0.159234,0.0704 1.3252,0.883196 -1.557768,9.906086 -2.658526,10.682714 0,0 0.821915,-10.421203 2.349109,-10.753108 z M 22.259829,34.546691 c 0,0 0.204502,8.532519 -1.192928,8.020569 -1.761354,-0.645278 1.192928,-8.020569 1.192928,-8.020569 z m -6.748566,0.699666 c 0,0 -0.04622,8.10469 -2.164312,7.372097 -1.974204,-0.682825 2.164312,-7.372097 2.164312,-7.372097 z M 79.375,37.442415 c -0.987286,1.44252 -1.091446,1.724009 -2.883265,3.584725 -1.791822,1.860716 -3.720445,2.904789 -3.720445,2.904789 0,0 2.570047,-1.137779 4.059683,-2.702143 1.444245,-1.516695 2.314224,-2.900999 2.544027,-3.787371 z M 0.4143295,44.693457 A 4.5956869,4.1367664 0 0 0 0.2785274,44.920635 4.5956869,4.1367664 0 0 0 0.13953,45.203275 4.5956869,4.1367664 0 0 0 0.0244976,45.493914 4.5956869,4.1367664 0 0 0 0,45.573902 13.340211,4.5642552 0 0 1 11.511758,48.614679 h 10.247467 c -0.428614,0.347523 -0.723422,0.761508 -0.279592,1.091628 0.94519,0.703038 2.768389,1.827952 4.833489,4.041216 2.788678,2.988752 0.310218,5.701684 1.642407,7.47182 0.969015,1.283831 0.01129,2.068866 0,5.591468 l 5.149829,0.08746 c -0.577806,0.03856 -1.170763,0.09405 -1.771285,0.171182 -2.316893,0.29759 -4.669034,0.963468 -4.997518,1.503856 -0.328482,0.540388 -0.141128,4.980859 -0.141128,4.980859 0,0 -0.140757,-1.66851 1.618973,-2.584821 2.086365,-1.086385 6.968512,-2.325643 6.968512,-2.325643 0,0 -2.252139,0.305189 -4.739224,1.010035 -1.308066,0.370713 -3.167652,1.339073 -3.167652,1.339073 0,0 -0.09374,-1.644628 0.727474,-2.067535 0.613669,-0.316031 1.571865,-0.657683 5.842153,-1.362538 4.187912,-0.691257 6.781051,-0.399428 6.781051,-0.399428 0,0 -1.615282,-0.264519 -3.950509,-0.325303 0.01266,-0.275859 0.231722,-1.645007 3.551624,-3.833234 4.665923,-3.075423 3.894563,-2.208557 5.959316,-3.665251 2.064756,-1.456691 0.908393,-1.129124 2.768764,-1.832892 2.111679,-0.798832 4.927552,-2.537339 5.490666,-2.960249 0.563114,-0.422915 5.564611,-4.547393 6.100444,-5.356822 0.139825,-0.211219 0.158737,-0.403844 0.115031,-0.574879 h 3.844 a 13.340211,4.5642552 0 0 1 11.511758,-3.040777 4.5956869,4.1367664 0 0 0 -0.0245,-0.07999 4.5956869,4.1367664 0 0 0 -0.115034,-0.290639 4.5956869,4.1367664 0 0 0 -0.138996,-0.28264 4.5956869,4.1367664 0 0 0 -0.135803,-0.227178 H 67.214586 37.808904 8.4032213 Z m 24.3911235,3.921226 h 13.003451 4.107081 c 0.03423,0.552394 -0.332738,0.995274 -0.480898,1.514521 -0.140788,0.493401 -0.23472,1.163361 -0.340305,1.774232 -0.104037,0.601926 -1.032629,1.985409 -1.032629,1.985409 l -4.316909,0.986572 c 0,0 -4.387928,-1.785822 -5.467233,-2.302712 -0.680432,-0.79883 -3.167125,-2.490453 -4.387206,-3.289285 -0.29443,-0.192775 -0.676175,-0.425641 -1.085352,-0.668737 z m 19.166203,0 h 3.432331 c -0.05419,0.250903 -0.242136,0.443276 -0.719484,0.842587 -0.661624,0.55344 -1.093666,1.18448 -1.689271,1.839289 -0.514394,0.565524 -1.648799,1.172155 -1.648799,1.172155 0,0 0.01188,-0.349685 -0.0213,-1.246812 -0.03318,-0.897133 0.294467,-1.115216 0.487822,-1.559319 0.144501,-0.331895 0.174958,-0.700727 0.158702,-1.0479 z m 6.184587,0 h 3.267773 c -0.207171,0.269445 -0.511138,0.51751 -0.890969,0.821787 -0.7136,0.571662 -1.193591,1.114379 -1.689271,1.539054 -0.812353,0.695982 -1.070764,0.870357 -2.346447,1.397733 -1.369755,0.566267 -2.24047,1.186555 -2.24047,1.186555 0,0 0.765116,-0.772055 1.430982,-1.421733 0.457531,-0.446405 0.691795,-1.275922 1.935846,-2.925055 0.161328,-0.213859 0.343269,-0.411002 0.532556,-0.598341 z m 5.400663,0 h 2.152599 c -0.0013,0.0031 -0.0013,0.0082 -0.0027,0.0112 -0.211166,0.446408 -0.492945,0.37575 -1.056062,0.540216 -0.503663,0.147103 -1.276736,0.800071 -1.900696,1.268677 -0.750819,0.563881 -1.407344,0.916164 -1.970461,1.339073 -0.563114,0.422913 -1.348658,1.427129 -2.135554,1.739034 -1.126228,0.446405 -1.437933,0.377602 -2.275619,0.61061 -0.84467,0.234948 -0.656907,0.305554 -2.088157,0.728464 -1.431252,0.422918 -2.360394,0.233168 -4.29401,0.469821 -2.111682,0.258447 -4.692361,0.164785 -4.692361,0.164785 0,0 5.302494,-0.94001 6.663357,-1.080965 1.38432,-0.14097 2.043651,-0.355767 3.049956,-0.658069 1.173152,-0.352427 2.546726,-0.863673 3.449374,-1.315608 0.985451,-0.493398 1.36084,-1.08099 2.463608,-1.879822 1.102765,-0.798831 2.048554,-1.326349 2.627638,-1.926216 0.003,-0.0031 0.006,-0.008 0.0091,-0.0112 z M 35.874124,69.21325 c 0,0 -4.65666,2.693117 -4.915505,2.408306 -0.169947,-0.187001 0.539481,-0.763662 0.539481,-0.763662 -0.222901,0.05874 -1.371644,0.575045 -0.967657,1.08683 0.403987,0.511784 3.828558,-1.653414 5.343681,-2.731474 z m 2.432189,0.143987 a 0.71568126,0.88099561 13.865684 0 0 -0.755166,0.6938 0.71568126,0.88099561 13.865684 0 0 0.473444,1.031902 0.71568126,0.88099561 13.865684 0 0 0.911203,-0.669269 l 0.0027,-0.0112 a 0.71568126,0.88099561 13.865684 0 0 -0.479835,-1.027635 0.71568126,0.88099561 13.865684 0 0 -0.15231,-0.01759 z" />
  </g>
</svg>
